<svg version="1.0" xmlns="http://www.w3.org/2000/svg" width="772.000000pt" height="590.000000pt" viewBox="0 0 772.000000 590.000000" preserveAspectRatio="xMidYMid meet">
	<metadata>
		Created by potrace 1.16, written by Peter Selinger 2001-2019
	</metadata>
	<g transform="translate(0.000000,590.000000) scale(0.100000,-0.100000)" fill="#5ceb15" stroke="black">
		<path stroke-width="0.1" d="M4515 5800 c4 -6 -10 -10 -33 -10 -26 0 -42 -5 -46 -15 -3 -9 -18
-15 -36 -15 -16 0 -30 -4 -30 -10 0 -5 -11 -10 -25 -10 -14 0 -25 -4 -25 -10
0 -5 -7 -10 -15 -10 -9 0 -28 -11 -43 -25 -15 -14 -32 -25 -39 -25 -7 0 -13
-4 -13 -10 0 -5 -5 -10 -11 -10 -6 0 -744 -733 -1641 -1630 -896 -897 -1634
-1630 -1639 -1630 -5 0 -9 -7 -9 -15 0 -8 -4 -15 -10 -15 -5 0 -10 -15 -10
-34 0 -19 -5 -38 -10 -41 -6 -3 -10 -36 -10 -73 -1 -43 -6 -74 -15 -86 -10
-13 -15 -43 -15 -84 0 -39 -4 -61 -10 -57 -6 4 -10 -23 -10 -74 0 -47 -4 -81
-10 -81 -6 0 -10 -31 -10 -74 0 -41 -4 -78 -10 -81 -5 -3 -10 -37 -10 -74 0
-49 -4 -72 -15 -81 -11 -9 -15 -32 -15 -82 0 -44 -4 -67 -10 -63 -6 4 -10 -20
-10 -65 0 -62 -3 -74 -25 -95 -13 -14 -29 -25 -35 -25 -5 0 -9 -6 -7 -12 1 -7
-4 -12 -11 -11 -6 2 -12 -2 -12 -8 0 -6 -16 -26 -35 -45 -19 -18 -35 -43 -35
-54 0 -11 -4 -20 -10 -20 -5 0 -10 -21 -10 -46 0 -27 4 -43 10 -39 6 3 10 -4
10 -17 1 -26 32 -68 52 -68 7 0 22 -7 32 -15 26 -20 100 -19 116 0 7 8 18 15
25 15 7 0 46 33 86 73 l74 74 75 7 c41 3 79 11 84 16 6 6 43 10 83 10 42 0 73
4 73 10 0 6 35 10 86 10 54 0 83 4 79 10 -4 6 23 10 74 10 53 0 81 4 83 12 3
8 33 14 79 16 41 2 78 8 83 13 6 5 43 9 83 9 42 0 73 4 73 10 0 6 32 10 76 10
47 0 73 4 69 10 -3 5 3 10 14 10 12 0 21 5 21 10 0 12 45 60 55 60 8 0 35 27
35 35 0 10 48 55 60 55 5 0 10 7 10 16 0 8 5 12 10 9 6 -3 10 -1 10 5 0 14 46
60 60 60 5 0 10 7 10 16 0 8 5 12 10 9 6 -3 10 -1 10 5 0 14 46 60 60 60 5 0
10 7 10 16 0 8 5 12 10 9 6 -3 10 -1 10 5 0 14 46 60 60 60 5 0 10 7 10 16 0
8 5 12 10 9 6 -3 10 -1 10 5 0 14 46 60 60 60 5 0 10 7 10 16 0 8 5 12 10 9 6
-3 10 -1 10 5 0 14 46 60 60 60 5 0 10 5 10 10 0 14 66 80 80 80 5 0 10 5 10
10 0 14 46 60 60 60 6 0 8 5 5 10 -3 6 1 10 9 10 9 0 16 5 16 10 0 14 46 60
60 60 6 0 8 5 5 10 -3 6 1 10 9 10 9 0 16 5 16 10 0 14 46 60 60 60 6 0 8 4 5
10 -3 6 1 10 9 10 9 0 16 5 16 10 0 14 46 60 60 60 6 0 8 5 5 10 -3 6 1 10 9
10 9 0 16 5 16 10 0 14 46 60 60 60 6 0 8 5 5 10 -3 6 1 10 9 10 9 0 16 5 16
10 0 12 45 60 55 60 8 0 35 27 35 35 0 8 47 55 55 55 8 0 35 27 35 35 0 8 47
55 55 55 8 0 35 27 35 35 0 8 47 55 55 55 8 0 35 27 35 35 0 10 48 55 60 55 5
0 10 7 10 16 0 8 5 12 10 9 6 -3 10 -1 10 5 0 14 46 60 60 60 5 0 10 7 10 16
0 8 5 12 10 9 6 -3 10 -1 10 5 0 14 46 60 60 60 5 0 10 7 10 16 0 8 5 12 10 9
6 -3 10 -1 10 5 0 14 46 60 60 60 5 0 10 7 10 16 0 8 5 12 10 9 6 -3 10 -1 10
5 0 14 46 60 60 60 5 0 10 7 10 16 0 8 5 12 10 9 6 -3 10 -1 10 5 0 14 46 60
60 60 5 0 10 5 10 10 0 14 66 80 80 80 5 0 10 5 10 10 0 14 46 60 60 60 6 0 8
5 5 10 -3 6 1 10 9 10 9 0 16 5 16 10 0 14 46 60 60 60 6 0 8 5 5 10 -3 6 1
10 9 10 9 0 16 5 16 10 0 14 46 60 60 60 6 0 8 5 5 10 -3 6 1 10 9 10 9 0 16
5 16 10 0 14 46 60 60 60 6 0 8 5 5 10 -3 6 1 10 9 10 9 0 16 5 16 10 0 14 46
60 60 60 6 0 8 5 5 10 -3 6 1 10 9 10 9 0 16 5 16 10 0 12 45 60 55 60 8 0 35
27 35 35 0 8 47 55 55 55 8 0 35 27 35 35 0 8 47 55 55 55 8 0 35 27 35 35 0
8 47 55 55 55 8 0 35 27 35 35 0 8 47 55 55 55 8 0 35 27 35 35 0 10 48 55 60
55 5 0 10 7 10 16 0 8 5 12 10 9 6 -3 10 -1 10 5 0 14 46 60 60 60 5 0 10 7
10 16 0 8 5 12 10 9 6 -3 10 -1 10 5 0 7 20 31 45 56 25 24 45 48 45 54 0 6
11 23 24 37 14 15 23 30 20 35 -3 4 2 11 10 14 9 3 16 17 16 30 0 13 5 24 10
24 6 0 10 11 10 25 0 14 5 25 10 25 6 0 10 13 10 29 0 16 7 36 15 45 9 9 15
34 15 66 0 32 4 49 10 45 6 -4 10 35 10 110 0 75 -4 114 -10 110 -6 -4 -10 15
-10 48 0 40 -4 56 -15 61 -9 3 -15 18 -15 35 0 16 -4 33 -10 36 -5 3 -10 17
-10 31 0 13 -4 24 -10 24 -5 0 -10 12 -10 26 0 14 -4 23 -10 19 -5 -3 -10 3
-10 13 0 11 -7 22 -15 26 -8 3 -15 12 -15 21 0 8 -4 15 -10 15 -5 0 -10 7 -10
15 0 8 -4 15 -10 15 -5 0 -10 4 -10 9 0 10 -147 161 -157 161 -3 0 -21 11 -39
25 -18 14 -38 25 -44 25 -6 0 -8 5 -5 10 3 6 -3 10 -14 10 -12 0 -21 5 -21 10
0 6 -11 10 -25 10 -14 0 -25 5 -25 10 0 6 -14 10 -30 10 -18 0 -33 6 -36 15
-4 10 -20 15 -46 15 -23 0 -37 4 -33 10 4 7 -60 10 -185 10 -125 0 -189 -3
-185 -10z m205 -300 c0 -6 28 -10 64 -10 36 0 68 -4 71 -10 3 -5 15 -10 26
-10 11 0 22 -7 25 -15 4 -8 17 -15 31 -15 13 0 21 -4 18 -10 -3 -5 3 -10 14
-10 12 0 21 -4 21 -10 0 -5 5 -10 11 -10 17 0 125 -114 140 -149 8 -17 17 -31
21 -31 5 0 8 -14 8 -31 0 -17 4 -28 10 -24 6 4 10 -8 10 -28 0 -19 7 -40 15
-47 21 -17 21 -187 0 -214 -8 -11 -15 -33 -15 -49 0 -16 -4 -26 -10 -22 -6 4
-10 -7 -10 -24 0 -17 -4 -31 -10 -31 -5 0 -10 -9 -10 -20 0 -11 -4 -20 -10
-20 -5 0 -10 -5 -10 -12 0 -20 -331 -347 -346 -341 -8 3 -14 16 -14 29 0 13
-4 24 -10 24 -5 0 -10 9 -10 20 0 11 -4 20 -10 20 -5 0 -10 5 -10 11 0 6 -6
17 -12 24 -32 35 -38 45 -38 60 0 8 -4 15 -10 15 -5 0 -10 5 -10 11 0 6 -11
20 -25 31 -14 11 -25 26 -25 34 0 8 -4 14 -10 14 -5 0 -10 4 -10 10 0 5 -44
53 -99 107 -115 114 -147 143 -161 143 -6 0 -10 5 -10 10 0 6 -7 10 -15 10 -8
0 -15 4 -15 9 0 5 -16 16 -35 25 -20 10 -33 21 -30 27 4 5 -3 9 -14 9 -12 0
-21 3 -21 8 0 8 -49 32 -67 32 -7 0 -13 5 -13 10 0 6 -9 10 -20 10 -11 0 -20
4 -20 9 0 5 52 62 115 126 63 64 115 119 115 122 0 7 28 33 36 33 4 0 17 11
30 25 13 14 28 25 34 25 5 0 10 5 10 10 0 6 9 10 21 10 11 0 17 5 14 10 -4 6
5 10 20 10 15 0 24 4 20 10 -4 6 7 13 25 16 17 4 33 11 36 15 3 5 32 9 65 9
33 0 59 4 59 10 0 6 11 10 25 10 14 0 25 -4 25 -10z m-875 -680 c-4 -6 7 -10
24 -10 17 0 31 -4 31 -10 0 -5 11 -10 25 -10 14 0 25 -4 25 -9 0 -5 11 -12 25
-15 14 -4 25 -11 25 -16 0 -6 9 -10 21 -10 11 0 17 -4 14 -10 -3 -5 3 -10 14
-10 12 0 21 -4 21 -10 0 -5 9 -10 20 -10 11 0 20 -4 20 -10 0 -5 6 -10 14 -10
8 0 16 -7 20 -15 3 -8 13 -15 21 -15 9 0 13 -4 10 -10 -3 -5 1 -10 9 -10 9 0
16 -4 16 -10 0 -5 5 -10 11 -10 11 0 149 -134 149 -145 0 -3 10 -17 23 -30 37
-40 47 -54 47 -65 0 -5 5 -10 10 -10 6 0 10 -9 10 -20 0 -11 4 -20 9 -20 5 0
11 -8 15 -17 3 -10 14 -31 25 -48 11 -16 20 -38 20 -47 1 -10 6 -18 11 -18 6
0 10 -18 10 -41 0 -29 3 -38 13 -33 6 5 -544 -548 -1223 -1227 -885 -885
-1236 -1230 -1238 -1217 -2 10 -8 16 -13 13 -5 -4 -9 5 -9 19 0 14 -3 26 -7
26 -11 0 -43 58 -43 76 0 8 -4 14 -10 14 -5 0 -10 9 -10 20 0 11 -4 20 -10 20
-5 0 -10 7 -10 15 0 8 -5 14 -12 12 -7 -1 -12 3 -13 10 0 6 -10 23 -22 37 -13
15 -23 28 -23 31 0 17 -198 215 -216 215 -3 0 -11 6 -18 13 -34 32 -67 57 -76
57 -6 0 -10 5 -10 10 0 6 -7 10 -15 10 -8 0 -15 5 -15 10 0 6 -9 10 -19 10
-10 0 -22 7 -25 16 -3 8 -10 12 -16 9 -6 -3 -13 1 -16 9 -3 9 -17 16 -30 16
-13 0 -24 5 -24 10 0 6 -8 10 -19 10 -10 0 -24 7 -31 15 -10 12 157 183 1030
1055 572 572 1043 1040 1046 1040 8 0 34 27 34 35 0 8 47 55 55 55 8 0 35 27
35 35 0 10 48 55 60 55 5 0 10 4 10 8 0 10 65 82 75 82 8 0 35 26 35 35 0 16
48 54 68 54 13 1 20 -3 17 -9z m-2631 -2725 c3 -8 17 -15 31 -15 15 0 24 -4
20 -10 -4 -6 5 -10 19 -10 14 0 26 -4 26 -10 0 -5 9 -10 20 -10 11 0 20 -4 20
-10 0 -5 9 -10 19 -10 10 0 21 -7 25 -15 3 -8 13 -15 21 -15 9 0 13 -4 10 -10
-3 -5 1 -10 10 -10 9 0 26 -10 39 -22 42 -42 76 -68 87 -68 5 0 7 -4 4 -10 -3
-5 -1 -10 5 -10 12 0 40 -24 40 -35 0 -4 6 -12 13 -19 32 -34 57 -67 57 -77 0
-5 5 -7 10 -4 6 3 10 -1 10 -10 0 -9 9 -26 20 -38 24 -25 50 -74 50 -94 0 -7
5 -13 10 -13 6 0 10 -11 10 -25 0 -14 5 -25 10 -25 6 0 10 -11 10 -24 0 -13 6
-27 13 -29 6 -3 -3 -6 -21 -6 -19 -1 -31 -5 -27 -11 4 -6 -22 -10 -70 -10 -55
0 -81 -4 -91 -15 -11 -10 -36 -15 -85 -15 -39 0 -69 -4 -69 -10 0 -6 -33 -10
-80 -10 -47 0 -80 -4 -80 -10 0 -6 -35 -10 -86 -10 -47 0 -83 -4 -80 -9 3 -5
-12 -11 -34 -13 -38 -3 -51 4 -30 17 6 3 10 40 10 81 0 48 4 73 10 69 6 -4 10
25 10 80 0 55 4 84 10 80 6 -4 10 23 10 74 0 47 4 81 10 81 6 0 10 31 10 74 0
53 4 77 15 86 10 8 15 31 15 66 0 46 3 54 19 54 10 0 21 -7 25 -15z" />
		<path d="M5455 4184 c-33 -7 -71 -13 -84 -14 -14 0 -43 -9 -65 -19 -23 -10
-58 -24 -78 -31 -21 -6 -38 -15 -38 -19 0 -4 -16 -13 -35 -19 -38 -14 -134
-83 -179 -128 -29 -29 -87 -115 -98 -145 -4 -9 -21 -19 -40 -23 -41 -8 -160
-66 -171 -83 -4 -7 -14 -13 -21 -13 -17 0 -154 -144 -194 -205 -18 -27 -36
-61 -39 -75 -4 -14 -12 -31 -19 -38 -8 -7 -18 -32 -24 -55 -6 -23 -15 -51 -21
-62 -55 -115 -52 -493 7 -622 8 -17 14 -38 14 -47 0 -16 21 -68 31 -76 3 -3 8
-14 11 -25 3 -11 9 -27 12 -35 4 -9 -2 -25 -13 -36 -28 -31 -78 -132 -92 -186
-6 -28 -10 -94 -7 -160 3 -103 6 -119 35 -178 18 -36 43 -78 55 -95 52 -67
160 -161 215 -187 47 -22 51 -32 26 -68 -14 -20 -17 -48 -17 -150 0 -118 1
-128 29 -180 32 -62 70 -116 100 -143 36 -31 129 -85 160 -93 17 -4 35 -11 42
-16 6 -5 42 -14 78 -19 79 -11 85 -14 85 -40 0 -11 7 -22 15 -25 8 -4 15 -14
15 -23 0 -9 14 -31 30 -49 17 -18 30 -37 30 -43 0 -5 6 -9 14 -9 8 0 23 -11
34 -25 11 -13 32 -30 48 -37 16 -6 36 -17 44 -24 26 -21 160 -47 270 -51 143
-6 220 19 301 100 26 26 28 26 41 10 23 -32 92 -77 143 -95 36 -13 78 -18 151
-17 185 2 309 48 411 150 35 34 65 71 69 82 4 12 13 27 20 35 8 7 14 20 14 28
0 8 1 14 3 14 1 0 54 7 117 14 80 10 135 23 180 42 36 16 67 32 68 36 2 4 9 8
16 8 20 0 110 91 139 140 14 25 29 59 33 75 4 17 12 36 18 44 14 18 14 200 0
209 -10 6 -15 23 -26 86 -2 10 6 23 17 30 84 48 157 123 195 203 43 89 52 145
48 290 -3 122 -5 131 -36 195 -19 38 -39 71 -46 75 -7 5 -19 18 -28 31 -14 20
-14 28 -1 65 8 23 23 60 34 83 10 22 19 45 19 52 0 6 5 23 12 39 31 75 40 128
45 275 4 127 2 171 -12 234 -9 43 -21 85 -25 93 -5 9 -16 37 -25 64 -9 26 -21
47 -26 47 -5 0 -9 7 -9 15 0 29 -69 130 -141 206 -90 95 -264 200 -356 215
-37 6 -43 10 -58 50 -9 24 -21 44 -26 44 -5 0 -9 6 -9 14 0 22 -104 130 -158
165 -26 17 -56 37 -66 45 -10 8 -33 18 -50 22 -17 4 -41 13 -54 22 -65 43
-364 66 -467 36 -58 -17 -117 -51 -142 -82 -7 -9 -13 -11 -13 -5 0 18 -80 67
-139 85 -68 22 -256 23 -346 2z m305 -189 c16 -8 37 -27 47 -42 38 -56 43
-118 43 -564 l0 -429 -100 0 -100 0 0 195 0 195 -164 0 c-156 0 -165 1 -171
20 -10 32 -89 108 -121 117 -37 10 -160 10 -197 0 -37 -10 -124 -97 -134 -134
-10 -37 -10 -160 0 -197 10 -35 100 -126 125 -126 10 0 23 -5 28 -10 14 -14
143 -15 157 -1 6 6 19 11 28 11 22 0 93 69 110 109 14 30 15 31 81 31 l68 0 2
-192 3 -193 193 -3 192 -2 0 -295 0 -295 -254 0 c-140 0 -261 -3 -270 -6 -14
-5 -16 -36 -16 -240 l0 -234 -43 -27 c-50 -30 -90 -87 -108 -155 -18 -67 1
-143 51 -207 22 -27 50 -53 62 -57 13 -3 26 -12 30 -18 10 -15 196 -15 206 0
4 6 21 18 37 27 30 15 75 67 75 86 0 5 6 11 13 14 8 2 12 31 12 98 0 90 -1 96
-33 141 -18 27 -47 55 -65 64 -18 9 -35 22 -39 28 -4 6 -8 75 -8 154 l0 142
175 0 175 0 0 -530 c0 -441 -2 -536 -14 -563 -35 -76 -92 -107 -200 -107 -93
0 -218 35 -269 75 -41 33 -93 109 -102 150 -3 14 -7 36 -10 50 -5 24 -8 25
-80 25 -41 0 -75 4 -75 8 0 4 -25 13 -55 19 -76 16 -156 68 -197 127 -31 47
-33 53 -33 140 0 95 3 106 81 244 l19 33 -25 19 c-14 11 -38 22 -55 25 -26 5
-139 56 -170 77 -35 23 -105 93 -105 103 0 8 -3 15 -7 17 -14 6 -43 65 -43 86
0 12 -4 24 -10 27 -5 3 -10 37 -10 75 0 38 5 72 10 75 6 3 10 13 10 22 0 35
35 93 96 159 l31 34 117 0 c96 0 116 -3 116 -15 0 -23 82 -103 123 -120 42
-17 135 -20 189 -5 44 12 138 99 138 127 0 11 5 24 10 29 6 6 11 40 11 75 0
98 -48 180 -127 218 -16 7 -37 17 -46 22 -23 12 -135 12 -142 0 -3 -4 -20 -11
-37 -15 -32 -6 -85 -54 -115 -105 l-18 -31 -143 0 c-124 0 -143 2 -143 16 0 9
-6 30 -14 47 -23 50 -46 137 -46 173 0 18 -4 36 -10 39 -6 3 -10 50 -10 105 0
55 4 102 10 105 6 3 10 21 10 39 0 62 40 170 108 291 25 43 87 113 139 156 43
35 141 78 198 86 58 8 59 9 67 45 19 92 132 202 273 265 137 62 395 94 465 58z
m690 -9 c41 -9 92 -28 112 -42 21 -13 43 -24 49 -24 17 0 129 -117 129 -134 0
-9 4 -16 8 -16 9 0 42 -92 42 -116 0 -14 59 -34 103 -34 16 0 43 -6 60 -14 18
-8 48 -22 67 -31 19 -9 49 -23 65 -32 40 -22 185 -169 185 -188 0 -8 9 -19 20
-25 11 -6 20 -19 20 -30 0 -10 5 -22 10 -25 6 -3 10 -15 10 -25 0 -10 3 -20 8
-22 12 -5 42 -112 42 -151 0 -20 5 -39 10 -42 6 -3 10 -44 10 -90 0 -46 -4
-87 -10 -90 -5 -3 -10 -21 -10 -39 0 -34 -23 -121 -44 -171 -8 -16 -19 -48
-26 -70 -7 -22 -18 -47 -24 -55 -7 -8 -18 -34 -26 -57 -7 -24 -17 -43 -22 -43
-4 0 -8 -10 -8 -22 0 -14 23 -45 59 -81 32 -31 66 -74 76 -95 10 -20 22 -45
26 -54 12 -24 11 -154 0 -176 -6 -9 -13 -34 -16 -54 -7 -42 -63 -131 -85 -136
-13 -2 -15 18 -14 140 1 79 -1 149 -4 156 -3 9 -82 12 -348 12 l-345 0 3 112
c3 106 4 113 26 124 77 38 126 123 127 219 0 52 -5 69 -34 117 -100 164 -325
168 -425 8 -41 -64 -48 -170 -16 -232 27 -54 75 -105 106 -112 l24 -6 2 -208
3 -207 343 -3 342 -2 0 -149 c0 -125 3 -155 19 -188 55 -114 61 -134 61 -206
0 -63 -4 -78 -30 -120 -17 -26 -45 -56 -63 -67 -17 -10 -37 -23 -43 -28 -13
-12 -143 -42 -178 -42 -15 0 -26 -4 -26 -10 0 -6 -37 -10 -90 -10 -88 0 -90
-1 -95 -25 -3 -14 -7 -36 -10 -50 -9 -45 -63 -120 -108 -152 -54 -39 -181 -73
-271 -73 -70 0 -127 20 -159 55 -43 47 -47 75 -47 305 l0 220 150 0 c83 0 150
-4 150 -9 0 -16 62 -86 88 -100 15 -8 30 -19 34 -25 5 -7 44 -11 101 -11 76 0
97 3 111 17 10 10 23 18 29 18 18 0 61 50 86 98 36 71 38 130 7 197 -50 110
-121 157 -239 157 -59 0 -74 -4 -116 -31 -51 -33 -101 -86 -101 -108 0 -10
-33 -13 -150 -13 l-150 0 0 800 0 800 296 0 c295 0 296 0 315 -22 10 -13 18
-28 19 -34 0 -16 82 -84 100 -84 9 0 21 -5 27 -11 19 -19 134 -12 183 12 49
24 100 67 100 86 0 6 8 19 18 29 21 21 30 155 12 194 -31 69 -69 113 -120 138
-74 36 -258 14 -277 -34 -3 -8 -11 -14 -18 -14 -8 0 -17 -10 -21 -22 -17 -59
-11 -58 -336 -58 l-298 0 0 238 c1 299 13 359 83 403 28 17 45 19 142 16 61
-2 144 -12 185 -21z" />
		<path d="M315 390 c3 -6 -5 -10 -19 -10 -25 0 -86 -49 -86 -70 0 -5 -4 -10
-10 -10 -6 0 -10 -32 -10 -76 0 -41 4 -73 8 -70 4 2 17 -9 27 -25 11 -16 26
-29 33 -29 6 0 12 -4 12 -10 0 -7 182 -10 525 -10 343 0 525 3 525 10 0 6 9
10 19 10 11 0 23 9 26 20 3 11 11 20 16 20 5 0 9 14 9 30 0 17 5 30 10 30 6 0
10 13 10 29 0 17 -4 33 -10 36 -5 3 -10 17 -10 31 0 35 -53 84 -91 84 -18 0
-28 4 -24 10 4 7 -158 10 -480 10 -322 0 -484 -3 -480 -10z" />
		<path d="M2115 390 c4 -6 -5 -10 -19 -10 -28 0 -76 -36 -76 -57 0 -8 -7 -16
-15 -19 -11 -5 -15 -23 -15 -75 0 -38 4 -69 9 -69 6 0 18 -13 28 -30 9 -16 23
-30 30 -30 7 0 13 -4 13 -10 0 -7 637 -10 1890 -10 1253 0 1890 3 1890 10 0 6
5 10 11 10 14 0 39 25 39 39 0 6 5 11 10 11 6 0 10 35 10 85 0 50 -4 85 -10
85 -5 0 -10 6 -10 14 0 8 -9 18 -20 21 -11 3 -20 11 -20 16 0 5 -14 9 -31 9
-17 0 -28 4 -24 10 4 7 -613 10 -1845 10 -1232 0 -1849 -3 -1845 -10z" />
	</g>
</svg>
