<svg xmlns="http://www.w3.org/2000/svg" xmlns:xlink="http://www.w3.org/1999/xlink" xmlns:fi="http://pattern.flaticon.com/" x="0" y="0" width="1400" height="700" viewBox="0 0 1400 700"><rect x="0px" y="0px" width="100%" height="100%" opacity="0.96" fill="#02122e"/><defs><g transform="matrix(0.03921568766236305 0 0 0.03921568766236305 340 165)" id="L1_22"><path d="m210 90h30v30h-30z"/><path d="m270 90h30v30h-30z"/><path d="m225 150h60v30h-60z"/><path d="m480 300v-15c0-41.355-33.645-75-75-75-7.359 0-53.227 0-60 0l30-40v-20h30v-30h-30v-30h30v-30h-30v-30h-105v-30h-30v30h-105v30h-30v30h30v30h-30v30h30v20l30 40c-20.886 0-39.115 0-60 0-41.355 0-75 33.645-75 75v15h30v75h-30v30h30v30h30c0-13.941 0-113.883 0-135h30v120h30v90h90v-90h30v90h90v-90h30v-120h30v135h30v-30h30v-30h-30v-75zm-315-140c0-7.936 0-86.07 0-100h180v100l-37.5 50h-105zm195 80v60h-62.58c-14.183-39.762-70.672-39.737-84.84 0h-62.58v-60zm-90 75c0 8.271-6.728 15-15 15-19.9-.824-19.894-29.179 0-30 8.272 0 15 6.729 15 15zm-207.43-45c6.19-17.461 22.873-30 42.43-30h15v30zm147.43 210h-30v-60h30zm120 0h-30v-60h30zm-180-90v-60h62.58c14.183 39.762 70.673 39.737 84.84 0h62.58v60zm240-150h15c19.557 0 36.239 12.539 42.43 30h-57.43z"/></g><g transform="matrix(0.0390625 0 0 0.0390625 165 165)" id="L1_27"><path d="M512,270.529c0-29.671-15.556-57.062-40.399-72.441c5.486-11.432,8.351-23.965,8.351-36.78    c0-36.87-45.526-66.747-75.336-82.353C401.433,34.883,364.575,0,319.726,0c-25.366,0-48.57,10.245-64.434,27.94    C239.288,10.247,216.578,0,192.274,0c-29.505,0-57.423,15.827-72.742,41.018c-7.072,11.63-11.293,24.926-12.182,38.509    c-0.005,0.079-0.016,0.157-0.021,0.236c-1.797,0.915-3.976,2.061-6.637,3.498c-6.691,3.612-16.797,9.46-26.942,16.806    c-27.671,20.035-41.702,40.639-41.702,61.241c0,12.815,2.864,25.348,8.35,36.78C15.556,213.467,0,240.858,0,270.529    c0,28.674,14.233,54.992,37.699,70.712c-3.713,9.7-5.651,20.085-5.651,30.494c0,30.764,16.25,58.64,42.715,73.831    C85.886,484.333,130.161,512,182.259,512c26.955,0,53.342-7.911,73.685-21.861C276.161,504.27,302.037,512,329.741,512    c52.098,0,96.374-27.667,107.496-66.434c26.466-15.19,42.715-43.067,42.715-73.831c0-10.408-1.938-20.793-5.651-30.494    C497.767,325.521,512,299.204,512,270.529z M182.259,492c-44.051,0-82.353-23.746-89.093-55.236    c-0.633-2.958-2.572-5.471-5.272-6.834c-16.159-8.156-27.836-22.266-32.956-38.924c8.358,4.165,17.362,6.284,26.753,6.284h0.03    c13.606,0,27.571-4.986,38.067-13.618c4.132-3.398,4.745-9.985,1.385-14.08c-3.376-4.114-9.976-4.742-14.073-1.383    c-7.25,5.94-16.03,9.08-25.4,9.08c-11.213,0-21.684-4.603-29.259-12.721c0.863-7.945,3.167-15.578,6.894-22.769    c2.537-4.895,0.633-10.919-4.255-13.468C33.441,317.049,20,294.9,20,270.529c0-25.488,15.004-48.778,38.224-59.333    c2.648-1.204,4.642-3.501,5.459-6.293c0.817-2.792,0.378-5.802-1.202-8.244c-6.825-10.544-10.433-22.769-10.433-35.351    c0-23.708,34.019-47.372,56.729-59.765c4.11,20.794,15.909,39.653,33.284,52.372c4.224,3.092,10.812,2.16,13.977-2.162    c3.262-4.457,2.294-10.714-2.163-13.976c-25.223-18.464-33.84-53.834-19.825-81.763C144.997,34.195,167.848,20,192.274,20    c21.223,0,40.865,10.219,53.1,27.477l0.001,1.009c-0.04,6.593-0.058,21.222-0.036,54.284h-55.63c-4.044,0-7.69,2.436-9.238,6.172    c-1.548,3.736-0.693,8.037,2.165,10.897c15.629,15.637,15.629,41.079,0.001,56.716c-15.161,15.17-41.556,15.124-56.672,0    c-3.904-3.906-10.235-3.908-14.142-0.003c-3.906,3.904-3.908,10.236-0.003,14.142c1.544,1.545,3.164,2.987,4.839,4.34    L91.34,221.036c-13.61,13.669-13.594,35.867,0.048,49.516c13.376,13.384,36.24,13.324,49.556,0.001    c3.904-3.907,3.902-10.238-0.004-14.142c-3.908-3.904-10.237-3.903-14.141,0.002c-5.507,5.509-15.573,5.696-21.264,0.002    c-5.866-5.869-5.866-15.419,0-21.289c0.03-0.031,0.061-0.062,0.091-0.093c0,0,29.178-29.965,29.181-29.969    c0.34-0.349,10.461,2.572,11.733,2.737c18.395,2.38,37.142-4,50.242-17.107c18.327-18.337,22.312-45.673,11.956-67.924h36.618    c0.023,25.576,0.064,59.411,0.127,104.193H221v-2.527c0-5.523-4.477-10-10-10s-10,4.477-10,10v25.051c0,5.523,4.477,10,10,10    s10-4.477,10-10v-2.523h24.511c0.007,4.729,0.073,49.256,0.1,66.175h-27.99c-1.692-4.666-4.397-9.043-8.131-12.779    c-6.618-6.622-15.417-10.268-24.777-10.268s-18.16,3.646-24.778,10.268c-3.904,3.907-3.902,10.238,0.004,14.143    c3.907,3.903,10.237,3.902,14.142-0.003c13.279-13.28,35.044,7.501,21.263,21.288c-3.904,3.906-3.903,10.238,0.003,14.142    c3.767,3.765,10.277,3.864,14.142-0.003c4.786-4.789,7.889-10.631,9.32-16.787h26.834c0.039,23.033,0.078,44.837,0.117,64.198    h-78.456c-2.653,0-5.197,1.054-7.073,2.931c-13.658,13.665-13.658,35.899-0.001,49.565c13.272,13.281,36.357,13.207,49.555,0.001    c3.904-3.907,3.903-10.238-0.003-14.142c-3.907-3.904-10.236-3.903-14.14,0.001c-5.623,5.624-15.677,5.593-21.265,0.002    c-4.967-4.97-5.729-12.579-2.283-18.358h73.708c0.037,17.078,0.139,52.249,0.155,55.421C228.765,485.031,205.842,492,182.259,492z     M456.921,328.332c-4.888,2.549-6.792,8.573-4.255,13.468c4.834,9.329,7.286,19.401,7.286,29.936    c0,24.736-13.735,47.035-35.845,58.195c-2.701,1.363-4.639,3.876-5.272,6.834C412.094,468.254,373.792,492,329.741,492    c-23.897,0-46.84-6.966-63.748-19.23l-0.081-55.433h36.145c3.638,15.471,17.541,27.026,34.1,27.026    c19.32,0,35.038-15.724,35.038-35.051c0-19.327-15.718-35.051-35.038-35.051c-15.117,0-28.028,9.628-32.93,23.076h-37.344    l-0.093-64.198h92.875c4.314,14.469,17.73,25.051,33.577,25.051c19.32,0,35.038-15.724,35.038-35.051    c0-19.327-15.718-35.051-35.038-35.051c-15.847,0-29.263,10.582-33.577,25.051H265.76l-0.096-66.175h21.893    c4.314,14.469,17.73,25.051,33.577,25.051c19.32,0,35.038-15.724,35.038-35.051c0-19.327-15.718-35.051-35.038-35.051    c-15.847,0-29.263,10.582-33.577,25.051h-21.922l-0.152-104.193h29.209c4.449,14.248,17.763,24.619,33.453,24.619    c19.32,0,35.038-15.724,35.038-35.051c0-19.327-15.718-35.051-35.038-35.051c-16.004,0-29.526,10.793-33.7,25.483h-28.991    l-0.081-55.382C277.242,30.185,297.346,20,319.726,20c35.903,0,65.113,29.228,65.113,65.153c0,6.172,4.858,8.633,6.932,9.684    c42.692,21.625,68.18,46.474,68.181,66.471c0.001,24.902-16.313,54.212-43.612,55.093c-2.67,0.08-5.15,1.2-6.98,3.15    c-1.83,1.94-2.79,4.49-2.7,7.16c0.08,2.61,1.16,5.05,3.04,6.87c1.87,1.82,4.34,2.82,6.95,2.82h0.03c0.09,0,0.189,0,0.279-0.01    c16.717-1.884,32.961-8.194,44.037-21.333C480.055,226.816,492,247.794,492,270.529C492,294.9,478.559,317.049,456.921,328.332z     M321.119,409.312c0-8.299,6.746-15.051,15.038-15.051c8.292,0,15.038,6.752,15.038,15.051c0,8.299-6.746,15.051-15.038,15.051    S321.119,417.611,321.119,409.312z M377.204,323.138c0-8.299,6.746-15.051,15.038-15.051s15.038,6.752,15.038,15.051    s-6.746,15.051-15.038,15.051S377.204,331.438,377.204,323.138z M306.097,236.963c0-8.299,6.746-15.051,15.038-15.051    s15.038,6.752,15.038,15.051c0,8.299-6.746,15.051-15.038,15.051S306.097,245.262,306.097,236.963z M313.107,112.338    c0-8.299,6.746-15.051,15.038-15.051s15.038,6.752,15.038,15.051s-6.746,15.051-15.038,15.051S313.107,120.637,313.107,112.338z"/><path d="M132.44,331.53c-2.78-0.24-5.54,0.7-7.6,2.58c-1.86,1.7-3,4.02-3.21,6.53c-0.23,2.67,0.59,5.26,2.32,7.3    c1.72,2.04,4.13,3.29,6.79,3.52c0.29,0.02,0.57,0.03,0.86,0.03c2.5,0,4.89-0.93,6.74-2.62c1.86-1.7,3-4.02,3.22-6.53    c0-0.01,0-0.01-0.01-0.01C142.01,336.84,137.93,331.99,132.44,331.53z"/><path d="M387.28,205.19c0,0,0,0-0.01-0.01c-1.87-1.81-4.34-2.8-6.94-2.8c-2.74,0-5.3,1.08-7.2,3.05c-1.85,1.92-2.85,4.45-2.8,7.12    c0.04,2.67,1.12,5.16,3.04,7.01c0,0,0,0.01,0.01,0.01c1.87,1.81,4.34,2.81,6.94,2.81c2.74,0,5.3-1.09,7.2-3.06    C391.34,215.36,391.24,209.03,387.28,205.19z"/></g><g transform="matrix(0.1171875 0 0 0.1171875 46 225)" id="L1_28"><path d="M111.189,460.8h-0.094c-4.702,0-8.482,3.823-8.482,8.533s3.857,8.533,8.576,8.533c4.71,0,8.533-3.823,8.533-8.533     S115.9,460.8,111.189,460.8z"/><path d="M247.467,477.867h17.067c4.719,0,8.533-3.823,8.533-8.533s-3.814-8.533-8.533-8.533h-17.067     c-4.719,0-8.533,3.823-8.533,8.533S242.748,477.867,247.467,477.867z"/><path d="M366.933,375.467H247.467c-4.719,0-8.533,3.823-8.533,8.533s3.814,8.533,8.533,8.533h119.467     c4.719,0,8.533-3.823,8.533-8.533S371.652,375.467,366.933,375.467z"/><path d="M196.267,221.867H25.6c-14.114,0-25.6,11.486-25.6,25.6V486.4C0,500.514,11.486,512,25.6,512h170.667     c14.114,0,25.6-11.486,25.6-25.6V247.467C221.867,233.353,210.381,221.867,196.267,221.867z M204.8,486.4     c0,4.702-3.823,8.533-8.533,8.533H25.6c-4.71,0-8.533-3.831-8.533-8.533V247.467c0-4.702,3.823-8.533,8.533-8.533h170.667     c4.71,0,8.533,3.831,8.533,8.533V486.4z"/><path d="M332.8,460.8h-25.6v-42.667c0-4.71-3.814-8.533-8.533-8.533s-8.533,3.823-8.533,8.533v51.2     c0,4.71,3.814,8.533,8.533,8.533H332.8c16.051,0,22.059,9.481,24.294,17.067H247.467c-4.719,0-8.533,3.823-8.533,8.533     s3.814,8.533,8.533,8.533h119.467c4.719,0,8.533-3.823,8.533-8.533C375.467,488.713,366.549,460.8,332.8,460.8z"/><path d="M256,358.4c9.412,0,17.067-7.654,17.067-17.067c0-9.412-7.654-17.067-17.067-17.067c-9.404,0-17.067,7.654-17.067,17.067     C238.933,350.746,246.596,358.4,256,358.4z"/><path d="M486.4,290.133h-68.267c-14.114,0-25.6,11.486-25.6,25.6V486.4c0,14.114,11.486,25.6,25.6,25.6H486.4     c14.114,0,25.6-11.486,25.6-25.6V315.733C512,301.619,500.514,290.133,486.4,290.133z M494.933,486.4     c0,4.702-3.823,8.533-8.533,8.533h-68.267c-4.71,0-8.533-3.831-8.533-8.533V315.733c0-4.702,3.823-8.533,8.533-8.533H486.4     c4.71,0,8.533,3.831,8.533,8.533V486.4z"/><path d="M469.333,0H42.667C19.14,0,0,19.14,0,42.667v153.6c0,4.71,3.814,8.533,8.533,8.533s8.533-3.823,8.533-8.533v-153.6     c0-14.114,11.486-25.6,25.6-25.6h426.667c14.114,0,25.6,11.486,25.6,25.6v221.867c0,4.71,3.814,8.533,8.533,8.533     c4.719,0,8.533-3.823,8.533-8.533V42.667C512,19.14,492.86,0,469.333,0z"/><path d="M452.523,460.8h-0.094c-4.702,0-8.482,3.823-8.482,8.533s3.857,8.533,8.576,8.533c4.71,0,8.533-3.823,8.533-8.533     S457.233,460.8,452.523,460.8z"/><path d="M366.933,290.133H247.467c-4.719,0-8.533,3.823-8.533,8.533s3.814,8.533,8.533,8.533h119.467     c4.719,0,8.533-3.823,8.533-8.533S371.652,290.133,366.933,290.133z"/><path d="M452.267,85.333c2.185,0,4.369-0.836,6.033-2.5c3.337-3.337,3.337-8.73,0-12.066L441.233,53.7     c-3.337-3.337-8.73-3.337-12.066,0c-3.336,3.337-3.336,8.73,0,12.066l17.067,17.067     C447.898,84.497,450.082,85.333,452.267,85.333z"/><path d="M452.267,136.533c2.185,0,4.369-0.836,6.033-2.5c3.337-3.337,3.337-8.73,0-12.066L390.033,53.7     c-3.336-3.337-8.73-3.337-12.066,0c-3.336,3.337-3.336,8.73,0,12.066l68.267,68.267     C447.898,135.697,450.082,136.533,452.267,136.533z"/></g><g transform="matrix(0.1171875 0 0 0.1171875 268 -12)" id="L1_29"><path d="M145.067,256c-13.158,0-25.6,12.442-25.6,25.6v85.333c0,13.158,12.442,25.6,25.6,25.6h17.067     c13.158,0,25.6-12.442,25.6-25.6c0-3.831,4.702-8.533,8.525-8.533H230.4c3.823,0,8.533,4.702,8.533,8.533     c0,13.158,12.442,25.6,25.6,25.6h78.379c3.533,9.916,12.911,17.067,24.021,17.067c14.114,0,25.6-11.486,25.6-25.6     s-11.486-25.6-25.6-25.6c-11.11,0-20.489,7.151-24.021,17.067h-78.379c-3.823,0-8.533-4.702-8.533-8.533     c0-13.158-12.442-25.6-25.6-25.6h-34.142c-13.158,0-25.591,12.442-25.591,25.6c0,3.831-4.71,8.533-8.533,8.533h-17.067     c-3.823,0-8.533-4.702-8.533-8.533V281.6c0-3.831,4.71-8.533,8.533-8.533c13.158,0,25.6-12.442,25.6-25.6s-12.442-25.6-25.6-25.6     c-3.823,0-8.533-4.702-8.533-8.533v-68.267c0-3.831,4.71-8.533,8.533-8.533h221.867c3.823,0,8.533,4.702,8.533,8.533V281.6     c0,3.831-4.71,8.533-8.533,8.533h-27.179c-2.569-7.228-8.252-12.919-15.488-15.497v-54.34     c9.907-3.541,17.067-12.919,17.067-24.03c0-14.114-11.486-25.6-25.6-25.6s-25.6,11.486-25.6,25.6     c0,11.11,7.159,20.489,17.067,24.021v54.349c-7.236,2.577-12.919,8.269-15.488,15.497H230.4c-3.823,0-8.533-4.702-8.533-8.533     v-27.17c9.907-3.541,17.067-12.919,17.067-24.03c0-14.114-11.486-25.6-25.6-25.6c-14.114,0-25.6,11.486-25.6,25.6     c0,11.11,7.159,20.489,17.067,24.021V281.6c0,13.158,12.442,25.6,25.6,25.6h61.312c3.533,9.916,12.911,17.067,24.021,17.067     c11.11,0,20.489-7.151,24.021-17.067h27.179c13.158,0,25.6-12.442,25.6-25.6V145.067c0-13.158-12.442-25.6-25.6-25.6H145.067     c-13.158,0-25.6,12.442-25.6,25.6v68.267c0,13.158,12.442,25.6,25.6,25.6c3.823,0,8.533,4.702,8.533,8.533     S148.89,256,145.067,256z M366.933,375.467c4.71,0,8.533,3.831,8.533,8.533c0,4.702-3.823,8.533-8.533,8.533     S358.4,388.702,358.4,384C358.4,379.298,362.223,375.467,366.933,375.467z M213.333,238.933c-4.71,0-8.533-3.831-8.533-8.533     c0-4.702,3.823-8.533,8.533-8.533c4.71,0,8.533,3.831,8.533,8.533C221.867,235.102,218.044,238.933,213.333,238.933z      M315.733,187.733c4.71,0,8.533,3.831,8.533,8.533c0,4.702-3.823,8.533-8.533,8.533s-8.533-3.831-8.533-8.533     C307.2,191.565,311.023,187.733,315.733,187.733z M315.733,307.2c-4.71,0-8.533-3.831-8.533-8.533s3.823-8.533,8.533-8.533     s8.533,3.831,8.533,8.533S320.444,307.2,315.733,307.2z"/><path d="M503.467,187.733c4.719,0,8.533-3.823,8.533-8.533s-3.814-8.533-8.533-8.533h-25.6v-34.133h25.6     c4.719,0,8.533-3.823,8.533-8.533s-3.814-8.533-8.533-8.533h-25.6V76.8c0-21.931-20.736-42.667-42.667-42.667h-42.667v-25.6     C392.533,3.823,388.719,0,384,0c-4.719,0-8.533,3.823-8.533,8.533v25.6h-34.133v-25.6c0-4.71-3.814-8.533-8.533-8.533     c-4.719,0-8.533,3.823-8.533,8.533v25.6h-34.133v-25.6c0-4.71-3.814-8.533-8.533-8.533c-4.719,0-8.533,3.823-8.533,8.533v25.6     h-34.133v-25.6c0-4.71-3.814-8.533-8.533-8.533s-8.533,3.823-8.533,8.533v25.6h-34.133v-25.6c0-4.71-3.814-8.533-8.533-8.533     s-8.533,3.823-8.533,8.533v25.6h-34.133v-25.6C136.533,3.823,132.719,0,128,0s-8.533,3.823-8.533,8.533v25.6H76.8     c-21.931,0-42.667,20.736-42.667,42.667v42.667h-25.6C3.814,119.467,0,123.29,0,128s3.814,8.533,8.533,8.533h25.6v34.133h-25.6     C3.814,170.667,0,174.49,0,179.2s3.814,8.533,8.533,8.533h25.6v34.133h-25.6C3.814,221.867,0,225.69,0,230.4     s3.814,8.533,8.533,8.533h25.6v34.133h-25.6C3.814,273.067,0,276.89,0,281.6s3.814,8.533,8.533,8.533h25.6v34.133h-25.6     C3.814,324.267,0,328.09,0,332.8c0,4.71,3.814,8.533,8.533,8.533h25.6v34.133h-25.6C3.814,375.467,0,379.29,0,384     s3.814,8.533,8.533,8.533h25.6v8.533c0,4.71,3.814,8.533,8.533,8.533s8.533-3.823,8.533-8.533V76.8     c0-12.442,13.158-25.6,25.6-25.6h358.4c12.442,0,25.6,13.158,25.6,25.6v358.4c0,12.442-13.158,25.6-25.6,25.6H76.8     c-12.442,0-25.6-13.158-25.6-25.6c0-4.71-3.814-8.533-8.533-8.533s-8.533,3.823-8.533,8.533     c0,21.931,20.736,42.667,42.667,42.667h42.667v25.6c0,4.71,3.814,8.533,8.533,8.533s8.533-3.823,8.533-8.533v-25.6h34.133v25.6     c0,4.71,3.814,8.533,8.533,8.533s8.533-3.823,8.533-8.533v-25.6h34.133v25.6c0,4.71,3.814,8.533,8.533,8.533     s8.533-3.823,8.533-8.533v-25.6h34.133v25.6c0,4.71,3.814,8.533,8.533,8.533c4.719,0,8.533-3.823,8.533-8.533v-25.6h34.133v25.6     c0,4.71,3.814,8.533,8.533,8.533c4.719,0,8.533-3.823,8.533-8.533v-25.6h34.133v25.6c0,4.71,3.814,8.533,8.533,8.533     c4.719,0,8.533-3.823,8.533-8.533v-25.6H435.2c21.931,0,42.667-20.736,42.667-42.667v-42.667h25.6     c4.719,0,8.533-3.823,8.533-8.533s-3.814-8.533-8.533-8.533h-25.6v-34.133h25.6c4.719,0,8.533-3.823,8.533-8.533     c0-4.71-3.814-8.533-8.533-8.533h-25.6v-34.133h25.6c4.719,0,8.533-3.823,8.533-8.533s-3.814-8.533-8.533-8.533h-25.6v-34.133     h25.6c4.719,0,8.533-3.823,8.533-8.533s-3.814-8.533-8.533-8.533h-25.6v-34.133H503.467z"/><path d="M94.123,102.4c4.71,0,8.533-3.823,8.533-8.533c0-4.71-3.823-8.533-8.533-8.533h-0.094c-4.702,0-8.482,3.823-8.482,8.533     C85.547,98.577,89.412,102.4,94.123,102.4z"/><path d="M94.123,426.667c4.71,0,8.533-3.823,8.533-8.533s-3.823-8.533-8.533-8.533h-0.094c-4.702,0-8.482,3.823-8.482,8.533     S89.412,426.667,94.123,426.667z"/><path d="M418.389,426.667c4.71,0,8.533-3.823,8.533-8.533s-3.823-8.533-8.533-8.533h-0.094c-4.702,0-8.482,3.823-8.482,8.533     S413.67,426.667,418.389,426.667z"/><path d="M418.389,102.4c4.71,0,8.533-3.823,8.533-8.533c0-4.71-3.823-8.533-8.533-8.533h-0.094c-4.702,0-8.482,3.823-8.482,8.533     C409.813,98.577,413.67,102.4,418.389,102.4z"/></g><g transform="matrix(2.5 0 0 2.5 126 40)" id="L1_30"><path d="m19.61 6.75c-.413 0-.75-.337-.75-.75s.337-.75.75-.75.75.337.75.75-.337.75-.75.75z"/><path d="m21.73 4.38c-.128 0-.256-.049-.354-.146-.945-.945-2.588-.945-3.533 0-.195.195-.512.195-.707 0s-.195-.512 0-.707c1.324-1.324 3.623-1.324 4.947 0 .195.195.195.512 0 .707-.097.097-.225.146-.353.146z"/><path d="m23.5 2.61c-.128 0-.256-.049-.354-.146-.944-.944-2.2-1.464-3.536-1.464-1.337 0-2.593.52-3.537 1.464-.195.195-.512.195-.707 0s-.195-.512 0-.707c1.133-1.133 2.64-1.757 4.244-1.757s3.11.624 4.243 1.757c.195.195.195.512 0 .707-.097.098-.225.146-.353.146z"/><path d="m13 18c-1.103 0-2-.897-2-2s.897-2 2-2 2 .897 2 2-.897 2-2 2zm0-3c-.552 0-1 .448-1 1s.448 1 1 1 1-.448 1-1-.448-1-1-1z"/><path d="m7 18c-1.103 0-2-.897-2-2s.897-2 2-2 2 .897 2 2-.897 2-2 2zm0-3c-.552 0-1 .448-1 1s.448 1 1 1 1-.448 1-1-.448-1-1-1z"/><path d="m15.5 24h-11c-1.379 0-2.5-1.121-2.5-2.5v-8c0-1.379 1.121-2.5 2.5-2.5h11c1.379 0 2.5 1.121 2.5 2.5v8c0 1.379-1.121 2.5-2.5 2.5zm-11-12c-.827 0-1.5.673-1.5 1.5v8c0 .827.673 1.5 1.5 1.5h11c.827 0 1.5-.673 1.5-1.5v-8c0-.827-.673-1.5-1.5-1.5z"/><path d="m10 12c-.276 0-.5-.224-.5-.5v-3c0-.276.224-.5.5-.5s.5.224.5.5v3c0 .276-.224.5-.5.5z"/><path d="m12.5 21h-5c-.276 0-.5-.224-.5-.5s.224-.5.5-.5h5c.276 0 .5.224.5.5s-.224.5-.5.5z"/><path d="m10 9c-1.103 0-2-.897-2-2s.897-2 2-2 2 .897 2 2-.897 2-2 2zm0-3c-.552 0-1 .448-1 1s.448 1 1 1 1-.448 1-1-.448-1-1-1z"/><path d="m2.5 18h-2c-.276 0-.5-.224-.5-.5s.224-.5.5-.5h2c.276 0 .5.224.5.5s-.224.5-.5.5z"/><path d="m19.5 18h-2c-.276 0-.5-.224-.5-.5s.224-.5.5-.5h2c.276 0 .5.224.5.5s-.224.5-.5.5z"/><path d="m.5 20c-.276 0-.5-.224-.5-.5v-4c0-.276.224-.5.5-.5s.5.224.5.5v4c0 .276-.224.5-.5.5z"/><path d="m19.5 20c-.276 0-.5-.224-.5-.5v-4c0-.276.224-.5.5-.5s.5.224.5.5v4c0 .276-.224.5-.5.5z"/></g></defs><g fi:class="KUsePattern"><pattern id="pattern_L1_22" width="350" height="350" patternUnits="userSpaceOnUse"><use xlink:href="#L1_22" x="-350" y="-350"/><use xlink:href="#L1_22" x="0" y="-350"/><use xlink:href="#L1_22" x="350" y="-350"/><use xlink:href="#L1_22" x="-350" y="0"/><use xlink:href="#L1_22" x="0" y="0"/><use xlink:href="#L1_22" x="350" y="0"/><use xlink:href="#L1_22" x="-350" y="350"/><use xlink:href="#L1_22" x="0" y="350"/><use xlink:href="#L1_22" x="350" y="350"/></pattern><rect x="0" y="0" width="100%" height="100%" fill="url(#pattern_L1_22)"/></g><g fi:class="KUsePattern"><pattern id="pattern_L1_27" width="350" height="350" patternUnits="userSpaceOnUse"><use xlink:href="#L1_27" x="-350" y="-350"/><use xlink:href="#L1_27" x="0" y="-350"/><use xlink:href="#L1_27" x="350" y="-350"/><use xlink:href="#L1_27" x="-350" y="0"/><use xlink:href="#L1_27" x="0" y="0"/><use xlink:href="#L1_27" x="350" y="0"/><use xlink:href="#L1_27" x="-350" y="350"/><use xlink:href="#L1_27" x="0" y="350"/><use xlink:href="#L1_27" x="350" y="350"/></pattern><rect x="0" y="0" width="100%" height="100%" fill="url(#pattern_L1_27)"/></g><g fi:class="KUsePattern"><pattern id="pattern_L1_28" width="350" height="350" patternUnits="userSpaceOnUse"><use xlink:href="#L1_28" x="-350" y="-350"/><use xlink:href="#L1_28" x="0" y="-350"/><use xlink:href="#L1_28" x="350" y="-350"/><use xlink:href="#L1_28" x="-350" y="0"/><use xlink:href="#L1_28" x="0" y="0"/><use xlink:href="#L1_28" x="350" y="0"/><use xlink:href="#L1_28" x="-350" y="350"/><use xlink:href="#L1_28" x="0" y="350"/><use xlink:href="#L1_28" x="350" y="350"/></pattern><rect x="0" y="0" width="100%" height="100%" fill="url(#pattern_L1_28)"/></g><g fi:class="KUsePattern"><pattern id="pattern_L1_29" width="350" height="350" patternUnits="userSpaceOnUse"><use xlink:href="#L1_29" x="-350" y="-350"/><use xlink:href="#L1_29" x="0" y="-350"/><use xlink:href="#L1_29" x="350" y="-350"/><use xlink:href="#L1_29" x="-350" y="0"/><use xlink:href="#L1_29" x="0" y="0"/><use xlink:href="#L1_29" x="350" y="0"/><use xlink:href="#L1_29" x="-350" y="350"/><use xlink:href="#L1_29" x="0" y="350"/><use xlink:href="#L1_29" x="350" y="350"/></pattern><rect x="0" y="0" width="100%" height="100%" fill="url(#pattern_L1_29)"/></g><g fi:class="KUsePattern"><pattern id="pattern_L1_30" width="350" height="350" patternUnits="userSpaceOnUse"><use xlink:href="#L1_30" x="-350" y="-350"/><use xlink:href="#L1_30" x="0" y="-350"/><use xlink:href="#L1_30" x="350" y="-350"/><use xlink:href="#L1_30" x="-350" y="0"/><use xlink:href="#L1_30" x="0" y="0"/><use xlink:href="#L1_30" x="350" y="0"/><use xlink:href="#L1_30" x="-350" y="350"/><use xlink:href="#L1_30" x="0" y="350"/><use xlink:href="#L1_30" x="350" y="350"/></pattern><rect x="0" y="0" width="100%" height="100%" fill="url(#pattern_L1_30)"/></g></svg>